<svg width="24" height="24" viewBox="0 0 24 24" fill="none" xmlns="http://www.w3.org/2000/svg">
<path d="M10.8586 4.71199C11.2178 3.60642 12.7819 3.60642 13.1412 4.71199L14.4246 8.66215C14.5853 9.15658 15.046 9.49133 15.5659 9.49133H19.7193C20.8818 9.49133 21.3651 10.9789 20.4247 11.6621L17.0645 14.1035C16.6439 14.4091 16.4679 14.9507 16.6286 15.4451L17.912 19.3953C18.2713 20.5008 17.0059 21.4202 16.0654 20.7369L12.7052 18.2956C12.2846 17.99 11.7151 17.99 11.2945 18.2956L7.93434 20.7369C6.99388 21.4202 5.72851 20.5008 6.08773 19.3953L7.37121 15.4451C7.53186 14.9507 7.35587 14.4091 6.93529 14.1035L3.57508 11.6621C2.63463 10.9789 3.11796 9.49133 4.28043 9.49133H8.43387C8.95374 9.49133 9.41448 9.15658 9.57513 8.66215L10.8586 4.71199Z" fill="#B1B1AC"/>
</svg>
